<?xml version="1.0" encoding="UTF-8" standalone="no"?>
<!DOCTYPE svg PUBLIC "-//W3C//DTD SVG 1.1//EN" "http://www.w3.org/Graphics/SVG/1.1/DTD/svg11.dtd">
<svg width="100%" height="100%" viewBox="0 0 49 27" version="1.1" xmlns="http://www.w3.org/2000/svg" xmlns:xlink="http://www.w3.org/1999/xlink" xml:space="preserve" xmlns:serif="http://www.serif.com/" style="fill-rule:evenodd;clip-rule:evenodd;stroke-linejoin:round;stroke-miterlimit:2;">
    <g>
        <path d="M15.585,7.891C14.697,7.891 13.785,8.218 12.873,8.862L12.684,8.996L12.684,27L13.578,27L13.578,9.463C14.27,9.013 14.945,8.784 15.585,8.784C16.219,8.784 16.701,8.989 17.057,9.41C17.426,9.843 17.613,10.469 17.613,11.269L17.613,27L18.507,27L18.507,11.269C18.507,10.252 18.248,9.432 17.74,8.831C17.211,8.206 16.486,7.891 15.585,7.891Z" style="fill:rgb(15,23,62);fill-rule:nonzero;"/>
        <path d="M33.197,7.891C32.285,7.891 31.373,8.202 30.486,8.818L30.296,8.952L30.296,27L31.191,27L31.191,9.423C31.859,8.998 32.535,8.784 33.197,8.784C33.806,8.784 34.285,8.987 34.656,9.404C35.033,9.832 35.225,10.459 35.225,11.269L35.225,27L36.121,27L36.121,11.269C36.121,10.235 35.852,9.408 35.324,8.811C34.781,8.201 34.064,7.891 33.197,7.891Z" style="fill:rgb(15,23,62);fill-rule:nonzero;"/>
        <path d="M46.226,2.82C44.511,0.997 42.142,0.072 39.189,0.072C37.251,0.072 35.478,0.453 33.925,1.204C32.521,1.881 31.103,2.93 29.709,4.321C27.8,1.5 24.933,0.072 21.187,0.072C18.247,0.072 15.687,1.039 13.578,2.948L13.578,0.29L0,0.29L0,27L0.892,27L0.892,1.181L12.683,1.181L12.683,5.15L13.458,4.32C15.531,2.094 18.132,0.966 21.187,0.966C24.81,0.966 27.523,2.414 29.253,5.268L29.556,5.765L29.959,5.344C31.405,3.828 32.87,2.706 34.314,2.007C35.744,1.317 37.384,0.966 39.189,0.966C41.888,0.966 44.036,1.795 45.576,3.431C47.124,5.076 47.91,7.442 47.91,10.465L47.91,27L48.802,27L48.802,10.465C48.802,7.206 47.935,4.633 46.226,2.82Z" style="fill:rgb(15,23,62);fill-rule:nonzero;"/>
    </g>
</svg>
